<?xml version="1.0" encoding="UTF-8"?>
<!-- Generator: visioncortex VTracer 0.6.4 -->
<svg version="1.1" xmlns="http://www.w3.org/2000/svg" width="584" height="584">
<path d="M0 0 C1.19850586 -0.00539795 2.39701172 -0.0107959 3.63183594 -0.01635742 C39.4572141 0.26559703 91.15271075 12.55516904 117.3125 38.3125 C120.5855163 42.12110078 122.57100729 45.47533881 122.75 50.5625 C122.3771859 53.75804947 122.07017247 55.67599129 120.3125 58.3125 C119.6525 58.3125 118.9925 58.3125 118.3125 58.3125 C118.08949219 58.88871094 117.86648437 59.46492188 117.63671875 60.05859375 C106.71908549 78.64111408 68.96911989 86.99682838 49.8046875 92.06640625 C15.90680389 100.70794003 -21.93945623 103.63939846 -53.6875 86.3125 C-65.36411393 79.03077397 -75.31644077 69.72370446 -79.6875 56.3125 C-80.92898559 45.11299311 -79.33135973 35.39972154 -72.375 26.28125 C-63.74791086 16.33775705 -52.72801695 10.92954034 -40.6875 6.3125 C-39.49060547 5.82330078 -39.49060547 5.82330078 -38.26953125 5.32421875 C-36.09205056 4.50292526 -33.9444407 3.88301442 -31.6875 3.3125 C-30.59824219 3.03535156 -29.50898437 2.75820312 -28.38671875 2.47265625 C-18.96477254 0.34656101 -9.63906272 0.02646741 0 0 Z " fill="#9B6BDA" transform="translate(82.6875,242.6875)"/>
<path d="M0 0 C17.01492628 -1.17387535 35.29325918 2.43653898 50.89892578 9.17138672 C51.63626953 9.47689453 52.37361328 9.78240234 53.13330078 10.09716797 C65.86131279 15.87568542 77.08208983 25.63972156 82.05126953 38.86279297 C84.90903962 50.01731492 82.95406042 60.06111744 77.89892578 70.17138672 C77.23892578 70.17138672 76.57892578 70.17138672 75.89892578 70.17138672 C75.65400391 70.74373047 75.40908203 71.31607422 75.15673828 71.90576172 C68.45609657 83.97524057 52.20965692 90.16854623 39.64892578 93.98388672 C-7.19465385 107.17994709 -60.23677271 93.82682474 -102.15869141 71.19555664 C-109.97806366 66.72655281 -116.45496524 61.51817158 -120.10107422 53.17138672 C-120.72222526 49.99661475 -120.61482718 48.12299732 -119.06982422 45.26123047 C-112.05799815 35.15251455 -101.76433177 30.14179458 -90.95068359 25.04541016 C-89.42547777 24.32468195 -87.91025756 23.58286172 -86.39794922 22.83544922 C-59.81378686 10.05790021 -29.3460981 2.39379048 0 0 Z " fill="#9B6BDA" transform="translate(497.10107421875,241.82861328125)"/>
<path d="M0 0 C2.8281871 1.72411406 5.26472175 3.57181042 7.76171875 5.74609375 C8.54933594 6.40996094 9.33695312 7.07382813 10.1484375 7.7578125 C27.02026163 23.25468322 35.38217255 48.58580953 36.91845703 71.03662109 C38.57121857 110.41221142 27.92954948 153.91001754 7.76171875 187.74609375 C7.25898438 188.596875 6.75625 189.44765625 6.23828125 190.32421875 C2.77850797 195.85253373 -1.30723847 200.78057236 -7.23828125 203.74609375 C-11.32364927 204.58389649 -14.77001105 204.54673586 -18.48046875 202.5234375 C-45.45714829 180.68288734 -55.68704054 130.38293056 -59.76953125 97.84375 C-62.5238411 71.3491672 -59.0723768 44.83069897 -45.23828125 21.74609375 C-44.89925781 21.04097656 -44.56023437 20.33585937 -44.2109375 19.609375 C-42.74022995 16.79199547 -40.52763198 14.92896305 -38.23828125 12.74609375 C-37.45453125 11.94171875 -36.67078125 11.13734375 -35.86328125 10.30859375 C-33.87227852 8.36499585 -31.87782166 6.46988796 -29.80078125 4.62109375 C-28.99833984 3.90566406 -28.99833984 3.90566406 -28.1796875 3.17578125 C-20.21141858 -2.69219949 -9.20796563 -3.56544869 0 0 Z " fill="#9B6ADA" transform="translate(303.23828125,1.25390625)"/>
<path d="M0 0 C23.53821514 14.43090573 32.58418548 54.1048783 38.5625 78.671875 C40.43934462 86.72586031 41.92348098 94.80189363 43 103 C43.0935376 103.69609375 43.1870752 104.3921875 43.28344727 105.109375 C46.68129788 132.41277797 41.25026323 156.71225727 29 181 C28.34 181 27.68 181 27 181 C26.76023437 181.71414063 26.52046875 182.42828125 26.2734375 183.1640625 C22.48649916 191.59755095 14.37840355 198.51815842 6.34375 202.8046875 C-0.88571097 205.38905088 -8.72046132 205.61470721 -15.9609375 202.8828125 C-18.51027283 201.43165239 -20.72010403 199.84208986 -23 198 C-23.6703125 197.52820313 -24.340625 197.05640625 -25.03125 196.5703125 C-42.28898401 183.35307971 -49.45192635 158.6644017 -52.5859375 138.16796875 C-57.13411689 98.61419298 -45.45560121 44.01581772 -21.44091797 11.91601562 C-9.94024589 -2.13386316 -9.94024589 -2.13386316 0 0 Z " fill="#9B6ADA" transform="translate(296,380)"/>
<path d="M0 0 C2.50896721 1.95058052 4.90977421 3.97150017 7.28515625 6.08203125 C7.92195313 6.63632813 8.55875 7.190625 9.21484375 7.76171875 C20.61318684 18.349513 27.31855876 33.68551402 28.28515625 49.08203125 C28.44659655 69.34278948 21.76627388 84.67335474 8.109375 99.43359375 C-4.5835304 111.84917517 -21.16658044 117.60706368 -38.6640625 117.43188477 C-53.11651333 117.00672848 -66.08849963 111.63494603 -77.71484375 103.08203125 C-77.71484375 102.42203125 -77.71484375 101.76203125 -77.71484375 101.08203125 C-78.28589844 100.85 -78.85695312 100.61796875 -79.4453125 100.37890625 C-89.87838915 94.41714816 -96.47384591 79.06550444 -99.58984375 68.14453125 C-103.7378496 50.73817541 -101.00020467 34.033784 -92.203125 18.39453125 C-90.36811173 15.54327704 -88.1399873 13.45077611 -85.71484375 11.08203125 C-84.81449643 9.96064057 -83.91894641 8.83538716 -83.02734375 7.70703125 C-62.44560962 -16.43591896 -24.84019667 -17.54897347 0 0 Z " fill="#9B6ADA" transform="translate(327.71484375,239.91796875)"/>
<path d="M0 0 C0.77408203 0.51369141 1.54816406 1.02738281 2.34570312 1.55664062 C10.53656021 7.02437812 18.40054433 12.72784652 26 19 C27.62467178 20.27125292 29.24968006 21.54207587 30.875 22.8125 C48.6717105 37.08898205 67.06130527 54.47623607 71 78 C71.83743754 87.582482 70.72430728 95.78596981 65.046875 103.734375 C59.02475097 110.85143068 52.02966956 116.15026504 42.69921875 117.84375 C22.57381336 119.00875176 4.74573558 109.22759586 -10.19140625 96.5234375 C-30.43042121 78.33928775 -44.94432234 56.14980558 -57.76171875 32.30029297 C-59.00704812 29.98690707 -60.26875492 27.68295978 -61.53125 25.37890625 C-83.01498887 -14.20292936 -83.01498887 -14.20292936 -82 -31 C-79.21605505 -35.57362385 -79.21605505 -35.57362385 -76.1171875 -36.66015625 C-52.86818943 -40.39200649 -17.9555775 -11.91866692 0 0 Z " fill="#9B6BDA" transform="translate(432,388)"/>
<path d="M0 0 C7.23979509 5.23212082 12.18783827 11.81988807 14.51171875 20.4921875 C14.72386924 23.12615981 14.84621945 25.61341755 14.82421875 28.2421875 C14.8185791 28.94956055 14.81293945 29.65693359 14.80712891 30.38574219 C14.56081198 41.06272717 10.45218946 49.1868349 5.51171875 58.4921875 C4.85171875 58.4921875 4.19171875 58.4921875 3.51171875 58.4921875 C3.28484375 59.19988281 3.05796875 59.90757812 2.82421875 60.63671875 C1.25308184 64.05487673 -0.92204979 66.49240738 -3.48828125 69.1796875 C-4.22957275 69.96678101 -4.22957275 69.96678101 -4.98583984 70.76977539 C-6.00090558 71.84282168 -7.01961921 72.91242919 -8.04199219 73.97851562 C-9.32229273 75.31846555 -10.58262944 76.67742839 -11.83984375 78.0390625 C-19.26992911 85.85214195 -27.81461489 92.14462338 -36.48828125 98.4921875 C-37.51550293 99.24653076 -37.51550293 99.24653076 -38.56347656 100.01611328 C-106.05964908 149.31271542 -106.05964908 149.31271542 -130.43359375 148.8203125 C-132.48828125 148.4921875 -132.48828125 148.4921875 -134.98828125 146.6171875 C-137.80805214 142.62251207 -137.60232528 140.31094989 -137.03515625 135.55078125 C-133.59324028 116.30063692 -123.05830435 97.32741138 -113.48828125 80.4921875 C-112.57040338 78.84702935 -111.65363942 77.20124894 -110.73828125 75.5546875 C-110.34769531 74.85601562 -109.95710938 74.15734375 -109.5546875 73.4375 C-108.12311151 70.82605369 -106.79244925 68.16916393 -105.48828125 65.4921875 C-104.82828125 65.4921875 -104.16828125 65.4921875 -103.48828125 65.4921875 C-103.15828125 63.8421875 -102.82828125 62.1921875 -102.48828125 60.4921875 C-101.82828125 60.4921875 -101.16828125 60.4921875 -100.48828125 60.4921875 C-100.48828125 59.5021875 -100.48828125 58.5121875 -100.48828125 57.4921875 C-99.82828125 57.4921875 -99.16828125 57.4921875 -98.48828125 57.4921875 C-98.48828125 56.5021875 -98.48828125 55.5121875 -98.48828125 54.4921875 C-97.82828125 54.4921875 -97.16828125 54.4921875 -96.48828125 54.4921875 C-96.27558594 53.64398438 -96.06289063 52.79578125 -95.84375 51.921875 C-94.17154804 47.69077033 -91.81666454 44.96397573 -88.80078125 41.6171875 C-88.2605835 41.00294922 -87.72038574 40.38871094 -87.16381836 39.75585938 C-85.61282784 37.99445866 -84.05126576 36.24293994 -82.48828125 34.4921875 C-81.17410871 32.99365262 -79.86122748 31.49398207 -78.55078125 29.9921875 C-77.74060547 29.07759766 -77.74060547 29.07759766 -76.9140625 28.14453125 C-75.63353974 26.66052816 -74.43017455 25.11077042 -73.23828125 23.5546875 C-57.05139066 4.1723266 -24.02257616 -14.55685149 0 0 Z " fill="#9B6ADA" transform="translate(487.48828125,83.5078125)"/>
<path d="M0 0 C19.76288439 15.29698584 33.96623656 34.76090103 46.375 56.1875 C46.79491211 56.91163086 47.21482422 57.63576172 47.64746094 58.38183594 C58.35034108 76.9719283 67.93125539 96.05286189 75.375 116.1875 C75.96474609 117.76144531 75.96474609 117.76144531 76.56640625 119.3671875 C77.44842439 122.44359859 77.70911686 125.11543855 77.75 128.3125 C77.77835938 129.32570312 77.80671875 130.33890625 77.8359375 131.3828125 C77.25810946 134.89874919 76.14005411 136.01245743 73.375 138.1875 C66.91706487 140.52334888 61.59512128 137.95638717 55.5703125 135.22753906 C36.98026312 126.42042047 19.640216 115.84133659 2.5625 104.4375 C1.90613556 103.99963165 1.24977112 103.56176331 0.57351685 103.11062622 C-14.18675667 93.24882154 -28.24220551 82.85997688 -41.625 71.1875 C-42.98431641 70.03121094 -42.98431641 70.03121094 -44.37109375 68.8515625 C-58.63358831 56.47770878 -72.29818861 38.53555894 -73.78125 19.14453125 C-74.17695615 9.56514493 -70.99282085 2.25622853 -64.625 -4.8125 C-45.89896121 -23.83987734 -18.79211002 -13.23352117 0 0 Z " fill="#9B6ADA" transform="translate(153.625,93.8125)"/>
<path d="M0 0 C3.10522404 1.99052823 3.82204009 3.44239228 4.9375 6.9375 C6.69393069 28.89288362 -11.92097259 58.7096337 -23.28125 76.33203125 C-26.52539406 81.3678276 -29.3463762 86.6329861 -32 92 C-32.66 92 -33.32 92 -34 92 C-34.37125 93.0828125 -34.37125 93.0828125 -34.75 94.1875 C-36.11136803 97.25057808 -37.88983277 99.41334339 -40 102 C-40.495 103.485 -40.495 103.485 -41 105 C-41.99 105.495 -41.99 105.495 -43 106 C-43.495 107.485 -43.495 107.485 -44 109 C-44.66 109 -45.32 109 -46 109 C-46.226875 109.7425 -46.45375 110.485 -46.6875 111.25 C-48.28578576 114.59878921 -50.07409441 115.72429565 -53 118 C-54.08352512 119.21067347 -55.14398611 120.44217446 -56.1875 121.6875 C-66.71424766 133.88587711 -79.97337233 143.16774725 -95 149 C-95.79535156 149.31839844 -96.59070313 149.63679687 -97.41015625 149.96484375 C-107.38995503 153.48617112 -119.3465016 153.60623782 -129 149 C-137.12508181 144.00604728 -143.12453509 137.71915089 -145.875 128.5 C-148.88757686 115.44550026 -144.7665089 104.78373557 -139 93 C-138.34 93 -137.68 93 -137 93 C-136.75636719 92.27425781 -136.51273438 91.54851562 -136.26171875 90.80078125 C-134.84485241 87.65560117 -133.16884189 85.69795719 -130.8125 83.1875 C-127.99313194 80.15263884 -125.2266581 77.10911679 -122.5625 73.9375 C-114.80912159 65.08409994 -105.41106 57.98622833 -96 51 C-95.31341309 50.48888672 -94.62682617 49.97777344 -93.91943359 49.45117188 C-83.57366719 41.78011956 -73.0230733 34.65607798 -62 28 C-60.76662641 27.24528281 -59.53354977 26.49008011 -58.30078125 25.734375 C-13.90490302 -1.34563578 -13.90490302 -1.34563578 0 0 Z " fill="#9B6ADA" transform="translate(227,352)"/>
<path d="M0 0 C0.99 0.33 1.98 0.66 3 1 C1.98679687 1.90492187 1.98679687 1.90492187 0.953125 2.828125 C-0.38492187 4.02695313 -0.38492187 4.02695313 -1.75 5.25 C-2.63171875 6.03890625 -3.5134375 6.8278125 -4.421875 7.640625 C-6.67866165 9.70592672 -8.85739926 11.81735064 -11 14 C-11 10.30159372 -10.17133056 9.68584567 -7.75 7 C-7.14671875 6.319375 -6.5434375 5.63875 -5.921875 4.9375 C-4.029153 3.02939002 -2.29901035 1.39779829 0 0 Z " fill="#8A5CDD" transform="translate(421,101)"/>
<path d="M0 0 C1.1875 1.6875 1.1875 1.6875 2 4 C0.625 6.75 0.625 6.75 -1 9 C-1.66 8.67 -2.32 8.34 -3 8 C-1.125 2.25 -1.125 2.25 0 0 Z " fill="#AB52E2" transform="translate(370,171)"/>
<path d="M0 0 C0.66 0.66 1.32 1.32 2 2 C1.38125 2.2475 0.7625 2.495 0.125 2.75 C-2.35068687 4.20628639 -2.95125002 5.37812506 -4 8 C-4.66 7.01 -5.32 6.02 -6 5 C-4.02 3.35 -2.04 1.7 0 0 Z " fill="#8456DD" transform="translate(272,7)"/>
<path d="M0 0 C0.99 0.66 1.98 1.32 3 2 C1.6875 4.5 1.6875 4.5 0 7 C-0.99 7 -1.98 7 -3 7 C-1.125 2.25 -1.125 2.25 0 0 Z " fill="#AA5EE0" transform="translate(198,432)"/>
<path d="M0 0 C0.99 0.33 1.98 0.66 3 1 C1.625 3.5 1.625 3.5 0 6 C-0.66 6 -1.32 6 -2 6 C-1.125 1.125 -1.125 1.125 0 0 Z " fill="#B059E2" transform="translate(209,413)"/>
</svg>
